<?xml version="1.0" encoding="UTF-8"?>
<svg width="562px" height="545px" viewBox="0 0 562 545" version="1.1" xmlns="http://www.w3.org/2000/svg" xmlns:xlink="http://www.w3.org/1999/xlink">
    <!-- Generator: Sketch 53.2 (72643) - https://sketchapp.com -->
    <title>Group 81</title>
    <desc>Created with Sketch.</desc>
    <g id="V3" stroke="none" stroke-width="1" fill="none" fill-rule="evenodd">
        <g id="Artboard" transform="translate(-364.000000, -154.000000)">
            <g id="Group-81" transform="translate(645.000000, 426.500000) scale(-1, 1) translate(-645.000000, -426.500000) translate(364.000000, 154.000000)">
                <polygon id="Fill-1" fill="#E6E7E8" points="196.510954 392.680961 108.253519 412.163811 214.938638 439.765009 268.280461 427.424884 242.741319 396.901259"></polygon>
                <polygon id="Fill-2" fill="#D1D3D4" points="255.101772 359.137003 192.860621 325.821612 17.8853641 363.782085 111.722314 414.706601 246.955278 441.64837"></polygon>
                <polygon id="Fill-3" fill="#E6E7E8" points="196.510954 392.680961 108.253519 412.163811 214.938638 439.765009 268.280461 427.424884 242.741319 396.901259"></polygon>
                <polygon id="Fill-4" fill="#FFFFFF" points="192.973665 325.821612 195.953756 393.07405 272.987136 425.639794 264.911103 355.105389"></polygon>
                <polygon id="Fill-5" fill="#31395D" points="16.0026942 359.227988 190.109869 321.113208 239.099078 343.225033 235.365992 348.872436 192.442128 329.110975 17.4182355 370.080617"></polygon>
                <path d="M241.923082,294.746141 L135.552233,154.435678" id="Stroke-6" stroke="#31395D" stroke-width="9"></path>
                <polygon id="Fill-7" fill="#31395D" points="234.392403 436.939966 211.800364 436.939966 211.800364 77.2178388 227.356681 77.2178388"></polygon>
                <polygon id="Fill-8" fill="#FFFFFF" points="211.800364 177.615598 350.647269 145.018868 489.494174 177.615598 349.400872 217.528302"></polygon>
                <polygon id="Fill-9" fill="#1C2133" points="213.683034 114.663505 213.683034 110.176672 227.481357 111.391397 258.867112 120.294473 244.944271 124.301887"></polygon>
                <polygon id="Fill-10" fill="#F1F2F2" points="351.117937 228.828473 211.800364 197.636515 211.800364 177.036021 351.117937 208.227979"></polygon>
                <polygon id="Fill-11" fill="#E6E7E8" points="350.176602 228.828473 489.494174 197.636515 489.494174 177.036021 350.176602 208.227979"></polygon>
                <polygon id="Fill-12" fill="#1C2133" points="443.361277 396.447684 495.142184 396.935079 479.08878 403.981132 442.427427 402.678684"></polygon>
                <polygon id="Fill-13" fill="#D1D3D4" points="445.083389 400.214408 442.427427 416.222985 468.784806 401.528017"></polygon>
                <polygon id="Fill-14" fill="#F1F2F2" points="350.73713 227.043926 475.37415 198.694683 441.58431 444.885172 334.844688 468.015437 303.109854 358.178662"></polygon>
                <polygon id="Fill-15" fill="#D1D3D4" points="350.176602 227.043926 334.291207 468.015437 227.634227 449.871804 223.096383 198.694683"></polygon>
                <polygon id="Fill-16" fill="#D1D3D4" points="558.211626 404.286375 538.498239 479.385839 533.82696 497.210545 531.976075 504.237309 529.052853 508.540281 522.604137 518.010945 520.723874 520.780404 359.594112 532.049743 238.934083 503.86903 87.9107376 468.175425 49.2184419 451.072546 49.2184419 451.057815 18.208785 437.357834 6.58934466 370.080617 111.898786 415.187435 218.324633 438.477402 368.96605 448.995452 538.160379 379.213938 540.216917 378.35953"></polygon>
                <polygon id="Fill-17" fill="#FFFFFF" points="558.211626 403.663265 538.407865 479.117141 533.71517 497.025966 531.855801 504.085891 528.919177 508.40917 522.440898 517.924528 524.595405 498.757645 538.068456 378.472505 540.134422 377.614065"></polygon>
                <polygon id="Fill-18" fill="#31395D" points="48.9110401 450.577039 48.9110401 450.590236 50.7334862 467.321313 51.2625835 472.10162 169.780372 501.487314 216.032292 512.939523 273.027825 527.075156 281.566867 529.18817 297.816425 530.994532 329.259539 536.358231 359.016046 541.445039 386.031829 541.445039 513.546626 544.291595 526.652424 505.656444 531.918059 503.51088 533.226105 498.57074 533.769899 496.517847 538.443592 478.774988 524.687063 498.233479 362.077835 512.501084 17.8853641 436.939966"></polygon>
                <polygon id="Fill-19" fill="#31395D" points="0 362.866638 0 370.278595 112.921861 423.301355 212.755463 443.093449 368.26044 456.715266 541.480839 386.115496 559.331404 413.826774 561.976966 401.291243 541.480839 368.960686 370.904533 442.858894 214.237624 430.829123 115.701097 411.188024 16.5285183 359.722127"></polygon>
                <polygon id="Fill-20" fill="#B3E3F4" points="462.195461 216.586621 460.975325 225.324476 445.539865 335.477532 367.113027 350.442584 353.000607 353.13036 353.279915 348.038198 359.233592 237.619464 450.023498 219.079566"></polygon>
                <polygon id="Fill-21" fill="#B3E3F4" points="336.997912 238.586064 336.352761 249.568025 330.077194 355.955403 301.646533 348.673564 291.778645 346.1412 289.931165 345.669065 289.931165 227.886792 330.003882 237.003892"></polygon>
                <polygon id="Fill-22" fill="#B3E3F4" points="266.397791 223.047668 266.397791 341.830189 244.951897 336.419591 238.857508 334.8716 238.554232 324.330517 235.333738 214.703259"></polygon>
                <polygon id="Fill-23" fill="#D6ECF2" points="462.195461 216.586621 460.975325 225.324476 367.113027 350.442584 353.000607 353.13036 353.279915 348.038198 450.023498 219.079566"></polygon>
                <polygon id="Fill-24" fill="#D6ECF2" points="336.997912 238.877963 336.353263 249.805705 301.674044 348.421955 291.813835 345.902095 330.009325 237.303602"></polygon>
                <polygon id="Fill-25" fill="#D6ECF2" points="267.339126 244.83705 267.339126 275.34367 245.587844 337.121784 239.406671 335.57586 239.099078 325.060343"></polygon>
                <g id="Group-80" transform="translate(23.533374, 0.000000)">
                    <path d="M442.423989,456.606284 C442.423989,459.989334 439.685026,462.729883 436.305748,462.729883 C432.926471,462.729883 430.187508,459.989334 430.187508,456.606284 C430.187508,453.223235 432.926471,450.481215 436.305748,450.481215 C439.685026,450.481215 442.423989,453.223235 442.423989,456.606284" id="Fill-26" fill="#BCBEC0"></path>
                    <path d="M436.305748,456.606284 C369.065321,531.739096 274.203229,483.378101 263.931752,436.238885 L258.593345,456.35046 C254.935031,470.129661 241.341553,478.802677 227.320709,476.301778 C212.035389,473.575931 202.067916,458.686691 205.359076,443.496048 L207.924743,431.660521" id="Stroke-28" stroke="#FFFFFF" stroke-width="3" stroke-linecap="round" stroke-linejoin="round"></path>
                    <path d="M196.84083,81.9547883 L196.84083,13.1955186" id="Stroke-30" stroke="#31395D" stroke-width="3"></path>
                    <polygon id="Fill-32" fill="#31395D" points="190.570588 110.713797 204.566466 107.441017 236.401581 116.341922 222.279403 120.348358"></polygon>
                    <polygon id="Fill-34" fill="#3A4777" points="222.279109 120.347917 222.279109 124.835126 236.401287 120.828689 236.401287 116.34148"></polygon>
                    <path d="M89.1624487,184.703047 L0.349571218,362.831414" id="Stroke-36" stroke="#FFFFFF" stroke-width="2" stroke-linecap="round" stroke-linejoin="round"></path>
                    <path d="M89.1624487,184.703047 L167.392504,321.562914" id="Stroke-38" stroke="#FFFFFF" stroke-width="2" stroke-linecap="round" stroke-linejoin="round"></path>
                    <path d="M195.279695,215.854009 L78.7702523,181.65301" id="Stroke-40" stroke="#31395D" stroke-width="9"></path>
                    <path d="M209.736423,13.1961067 C209.736423,20.3268283 203.963307,26.1049182 196.840536,26.1049182 C189.719234,26.1049182 183.944649,20.3268283 183.944649,13.1961067 C183.944649,6.06538506 189.719234,0.287295165 196.840536,0.287295165 C203.963307,0.287295165 209.736423,6.06538506 209.736423,13.1961067" id="Fill-42" fill="#31395D"></path>
                    <path d="M12.3255194,341.337949 L12.3255194,341.337949 C8.8360959,339.758898 7.2837724,335.646604 8.86106232,332.151815 L14.0996034,320.541236 C15.6768933,317.047917 19.7846027,315.495331 23.2754948,317.072912 C26.766387,318.651962 28.3172418,322.764257 26.7399519,326.259045 L21.5014108,337.868154 C19.9241209,341.362943 15.8164115,342.915529 12.3255194,341.337949" id="Fill-44" fill="#D95824"></path>
                    <path d="M160.968058,309.790754 L160.968058,309.790754 C157.682772,311.760891 153.422327,310.690548 151.454386,307.401595 L144.916123,296.473212 C142.948182,293.184259 144.017332,288.920528 147.302618,286.948921 C150.587904,284.978783 154.848349,286.049127 156.81629,289.33808 L163.354554,300.264992 C165.322494,303.556886 164.253344,307.820616 160.968058,309.790754" id="Fill-46" fill="#D95824"></path>
                    <path d="M92.8339802,433.537444 C90.0450849,433.537444 85.8286981,439.321415 85.8286981,448.035598 C85.8286981,456.751251 90.0450849,462.535222 92.8339802,462.535222 C95.6228754,462.535222 99.8407308,456.751251 99.8407308,448.035598 C99.8407308,439.321415 95.6228754,433.537444 92.8339802,433.537444 M92.8339802,478.707993 C79.8470391,478.707993 69.6739597,465.236075 69.6739597,448.035598 C69.6739597,430.836591 79.8470391,417.364673 92.8339802,417.364673 C105.820921,417.364673 115.995469,430.836591 115.995469,448.035598 C115.995469,465.236075 105.820921,478.707993 92.8339802,478.707993" id="Fill-48" fill="#101523"></path>
                    <path d="M92.8339802,478.707405 L86.1738221,478.707405 C86.1738221,478.707405 86.8170744,473.01753 87.1387005,473.01753 C87.4588581,473.01753 97.8316688,472.1442 97.8316688,472.1442 L98.6570291,474.993548 L92.8339802,478.707405 Z" id="Fill-50" fill="#101523"></path>
                    <polygon id="Fill-52" fill="#101523" points="92.8339802 417.364673 85.6128121 417.367614 85.8286981 424.051379 101.315218 424.051379"></polygon>
                    <path d="M85.8924359,433.537444 C83.1035406,433.537444 78.8871539,439.321415 78.8871539,448.035598 C78.8871539,456.751251 83.1035406,462.535222 85.8924359,462.535222 C88.6813312,462.535222 92.8991865,456.751251 92.8991865,448.035598 C92.8991865,439.321415 88.6813312,433.537444 85.8924359,433.537444 M85.8924359,478.707993 C72.9054948,478.707993 62.7324154,465.236075 62.7324154,448.035598 C62.7324154,430.836591 72.9054948,417.364673 85.8924359,417.364673 C98.879377,417.364673 109.053925,430.836591 109.053925,448.035598 C109.053925,465.236075 98.879377,478.707993 85.8924359,478.707993" id="Fill-54" fill="#1C2133"></path>
                    <path d="M94.6704802,417.364673 C94.6704802,417.364673 82.5191797,417.902786 85.6135464,433.57126" id="Stroke-56" stroke="#FFFFFF" stroke-width="3" stroke-linecap="round" stroke-linejoin="round"></path>
                    <path d="M184.03629,453.322624 C181.247395,453.322624 177.031008,459.106595 177.031008,467.820777 C177.031008,476.536431 181.247395,482.320402 184.03629,482.320402 C186.825186,482.320402 191.043041,476.536431 191.043041,467.820777 C191.043041,459.106595 186.825186,453.322624 184.03629,453.322624 M184.03629,498.493172 C171.049349,498.493172 160.87627,485.021254 160.87627,467.820777 C160.87627,450.621771 171.049349,437.149853 184.03629,437.149853 C197.023231,437.149853 207.197779,450.621771 207.197779,467.820777 C207.197779,485.021254 197.023231,498.493172 184.03629,498.493172" id="Fill-58" fill="#101523"></path>
                    <path d="M184.03629,498.492731 L177.376132,498.492731 C177.376132,498.492731 178.019385,492.802856 178.341011,492.802856 C178.661168,492.802856 189.033979,491.929527 189.033979,491.929527 L189.859339,494.778875 L184.03629,498.492731 Z" id="Fill-60" fill="#101523"></path>
                    <polygon id="Fill-62" fill="#101523" points="184.03629 437.149853 176.815122 437.152793 177.031008 443.836559 192.517528 443.836559"></polygon>
                    <path d="M177.094893,453.322624 C174.305998,453.322624 170.089611,459.106595 170.089611,467.820777 C170.089611,476.536431 174.305998,482.320402 177.094893,482.320402 C179.883788,482.320402 184.101644,476.536431 184.101644,467.820777 C184.101644,459.106595 179.883788,453.322624 177.094893,453.322624 M177.094893,498.493172 C164.107952,498.493172 153.934872,485.021254 153.934872,467.820777 C153.934872,450.621771 164.107952,437.149853 177.094893,437.149853 C190.081834,437.149853 200.256382,450.621771 200.256382,467.820777 C200.256382,485.021254 190.081834,498.493172 177.094893,498.493172" id="Fill-64" fill="#1C2133"></path>
                    <path d="M186.218502,430.240845 C186.218502,430.240845 173.722077,437.687671 176.814975,453.356145" id="Stroke-66" stroke="#FFFFFF" stroke-width="3" stroke-linecap="round" stroke-linejoin="round"></path>
                    <path d="M259.169335,527.887624 L258.523146,529.725439 L249.990507,527.608276 L20.0013699,471.318213 C15.4839176,470.212583 11.6934285,467.148578 9.66380595,462.959831 L259.169335,527.887624 Z" id="Fill-74" fill="#FFFFFF"></path>
                    <path d="M509.993679,499.026727 L508.686613,503.980005 L505.764074,508.274611 L490.328956,544.86918 C490.328956,544.86918 497.583902,502.318621 509.993679,499.026727" id="Fill-78" fill="#FFFFFF"></path>
                </g>
            </g>
        </g>
    </g>
</svg>